<svg width="216" height="222" xmlns="http://www.w3.org/2000/svg">
 <g>
  <title>background</title>
  <rect x="-1" y="-1" width="218" height="224" id="canvas_background" fill="none"/>
 </g>
 <g>
  <title>lemon</title>
  <path id="svg_1" fill="#ffff33" d="m195.333,129.506c-0.446,0 -0.893,0 -1.488,-0.148c-6.399,-0.744 -11.013,-6.548 -10.269,-12.947l6.994,-57.891c0.447,-3.721 -1.785,-7.293 -5.208,-8.483l-47.176,-16.816c-6.103,-2.232 -9.228,-8.78 -7.144,-14.882c2.232,-6.102 8.78,-9.227 14.882,-7.144l47.176,16.816c13.989,4.911 22.472,18.603 20.687,33.336l-6.995,57.891c-0.595,5.804 -5.655,10.268 -11.459,10.268z" />
  <path id="svg_2" fill="#ffff33" d="m104.851,222.222c-5.209,0 -10.417,-1.34 -15.329,-4.019l-61.016,-33.931c-8.781,-4.911 -14.733,-13.691 -15.924,-23.663l-12.352,-100.602c-1.786,-14.733 6.995,-28.723 20.983,-33.634l75.452,-25.746c6.102,-2.083 12.799,1.19 14.882,7.292c2.084,6.103 -1.19,12.799 -7.292,14.883l-75.452,25.745c-3.572,1.191 -5.804,4.763 -5.357,8.632l12.352,100.603c0.298,2.53 1.786,4.762 4.018,6.102l61.016,33.931c2.381,1.34 5.358,1.34 7.739,0l66.076,-36.163c2.232,-1.19 3.87,-3.571 4.167,-6.102c0.744,-6.399 6.549,-11.013 12.948,-10.269c6.398,0.744 11.012,6.548 10.269,12.947c-1.191,9.971 -7.293,18.9 -16.073,23.812l-66.076,36.163c-4.614,2.679 -9.823,4.019 -15.031,4.019z" />
  <path id="svg_3" fill="#ffff33" d="m153.81294,71.4716l-1.87799,1.10236l-0.01456,0.0149c-14.49986,-17.71221 -42.75712,-21.19805 -66.60327,-7.10574c-23.8316,14.07741 -35.02677,40.86173 -27.28187,62.56627l-1.58683,0.93849c-3.82878,2.2643 -5.15356,7.31429 -2.94073,11.23214l0.91716,1.62374c2.21283,3.91784 7.14802,5.27344 10.9768,3.00914l1.87799,-1.10236c0.20381,-0.11917 0.36395,-0.26814 0.55321,-0.40221c15.15497,14.79245 41.28675,16.96738 63.56063,3.81356c22.28844,-13.1985 33.51273,-37.46528 28.54842,-58.30581c0.32028,-0.13407 0.64056,-0.25324 0.93172,-0.43201l1.87799,-1.10236c3.82878,-2.2643 5.15356,-7.31429 2.94073,-11.23214l-0.91716,-1.62374c-2.19827,-3.90294 -7.13347,-5.25855 -10.96224,-2.99424l0,0.00001z"/>
 </g>
</svg>
